<svg width="290" height="72" viewBox="0 0 290 72" fill="none" xmlns="http://www.w3.org/2000/svg">
<path d="M190.024 19.6167C186.882 23.7547 184.461 28.2987 182.434 33.0841C180.19 38.3811 178.913 42.1884 176.989 47.6859C175.218 52.7478 173.774 58.4562 170.926 63.092C168.492 67.0536 165.158 67.9256 160.738 67.2786C149.993 65.7062 141.424 59.5186 137.288 49.3358C130.48 32.5737 140.595 11.742 157.85 6.54106C165.679 4.18146 174.493 4.30917 182.537 5.07676C188.639 5.65902 194.117 6.78919 198.644 11.1196C204.461 16.6836 205.489 24.8671 199.614 30.8567C195.4 35.1523 189.676 36.728 183.836 37.1883C179.467 37.5327 175.057 37.4088 170.678 37.4564C169.711 37.4669 164.72 38.2068 163.625 37.477C162.913 37.0023 165.158 36.6975 165.976 36.4458C169.291 35.4259 172.685 34.7281 176.144 34.4453C179.741 34.1512 181.549 33.8515 182.661 37.1883C184.19 41.7744 186.373 46.6134 191.137 48.2015" stroke="#14AE5C" stroke-width="8" stroke-linecap="round" stroke-linejoin="round"/>
<path d="M59.1122 19.5485C55.9704 23.6865 53.5498 28.2305 51.5226 33.016C49.2787 38.313 48.0012 42.1203 46.0779 47.6177C44.3069 52.6797 42.8629 58.388 40.0144 63.0238C37.5802 66.9855 34.2471 67.8575 29.8262 67.2105C19.0815 65.6381 10.5125 59.4505 6.37675 49.2677C-0.431047 32.5056 9.68322 11.6739 26.9388 6.47294C34.7674 4.11334 43.5813 4.24104 51.6257 5.00863C57.7277 5.59088 63.2058 6.72105 67.733 11.0514C73.55 16.6155 74.5779 24.799 68.7024 30.7886C64.4886 35.0841 58.7647 36.6599 52.925 37.1201C48.5551 37.4646 44.1455 37.3407 39.7669 37.3882C38.7996 37.3988 33.8082 38.1386 32.7136 37.4089C32.0015 36.9342 34.2467 36.6293 35.0647 36.3777C38.3794 35.3578 41.7732 34.66 45.2323 34.3772C48.8293 34.0831 50.6372 33.7834 51.7495 37.1201C53.2782 41.7063 55.4618 46.5453 60.2259 48.1333" stroke="#14AE5C" stroke-width="8" stroke-linecap="round" stroke-linejoin="round"/>
<path d="M64.1721 40.6279C63.6678 40.9191 63.2837 41.0851 63.0159 41.6699C62.4509 42.9038 61.808 44.3039 62.2051 45.6758C62.5178 46.7562 63.0891 47.7183 64.1189 48.2275C64.6807 48.5052 65.2987 48.7095 65.9095 48.8413C66.8141 49.0366 67.88 49.2565 68.7952 49.0168C69.8011 48.7534 70.8822 48.411 71.7872 47.8886C72.0926 47.7122 72.2671 47.2038 72.3909 46.8968C72.5761 46.4373 72.5776 45.9398 72.6703 45.4578C72.7648 44.9669 72.9426 44.3947 72.8773 43.8933C72.761 43.001 72.2343 42.1495 71.7536 41.4053C71.3257 40.7429 70.7646 40.3822 70.0474 40.0907C69.2004 39.7463 68.176 39.5198 67.2692 39.3993C66.6995 39.3236 65.8991 39.3137 65.3796 39.6136C65.0258 39.8178 64.8112 40.048 64.4233 40.1701C64.1753 40.2482 63.0886 40.6742 63.3051 41.0492" stroke="#14AE5C" stroke-width="8" stroke-linecap="round" stroke-linejoin="round"/>
<path d="M77.5376 41.4158C77.0332 41.707 76.6492 41.873 76.3814 42.4578C75.8163 43.6917 75.1735 45.0918 75.5705 46.4637C75.8833 47.5441 76.4546 48.5062 77.4843 49.0154C78.0461 49.2931 78.6641 49.4974 79.275 49.6292C80.1796 49.8245 81.2455 50.0444 82.1606 49.8047C83.1665 49.5413 84.2477 49.1989 85.1527 48.6765C85.4581 48.5001 85.6326 47.9917 85.7564 47.6847C85.9416 47.2252 85.9431 46.7277 86.0358 46.2457C86.1302 45.7548 86.3081 45.1826 86.2427 44.6812C86.1264 43.7889 85.5998 42.9374 85.1191 42.1932C84.6911 41.5308 84.13 41.1701 83.4129 40.8786C82.5659 40.5342 81.5415 40.3077 80.6347 40.1872C80.065 40.1115 79.2645 40.1016 78.745 40.4015C78.3912 40.6058 78.1766 40.8359 77.7887 40.958C77.5408 41.0361 76.4541 41.4621 76.6706 41.8371" stroke="#14AE5C" stroke-width="8" stroke-linecap="round" stroke-linejoin="round"/>
<path d="M246.956 41.1659C246.451 41.4571 246.067 41.6231 245.8 42.2079C245.234 43.4418 244.592 44.8419 244.989 46.2137C245.301 47.2942 245.873 48.2563 246.903 48.7654C247.464 49.0432 248.082 49.2475 248.693 49.3793C249.598 49.5745 250.664 49.7945 251.579 49.5548C252.585 49.2914 253.666 48.949 254.571 48.4265C254.876 48.2502 255.051 47.7418 255.175 47.4348C255.36 46.9753 255.361 46.4778 255.454 45.9958C255.548 45.5049 255.726 44.9327 255.661 44.4313C255.545 43.539 255.018 42.6874 254.537 41.9433C254.109 41.2809 253.548 40.9202 252.831 40.6286C251.984 40.2843 250.96 40.0578 250.053 39.9373C249.483 39.8616 248.683 39.8516 248.163 40.1516C247.809 40.3558 247.595 40.586 247.207 40.7081C246.959 40.7861 245.872 41.2122 246.089 41.5871" stroke="#14AE5C" stroke-width="8" stroke-linecap="round" stroke-linejoin="round"/>
<path d="M93.6219 42.1583C93.1175 42.4494 92.7334 42.6155 92.4656 43.2003C91.9006 44.4341 91.2577 45.8343 91.6548 47.2061C91.9676 48.2865 92.5389 49.2486 93.5686 49.7578C94.1304 50.0356 94.7484 50.2398 95.3593 50.3717C96.2638 50.5669 97.3298 50.7868 98.2449 50.5472C99.2508 50.2838 100.332 49.9414 101.237 49.4189C101.542 49.2426 101.717 48.7342 101.841 48.4271C102.026 47.9676 102.027 47.4701 102.12 46.9882C102.215 46.4972 102.392 45.9251 102.327 45.4237C102.211 44.5314 101.684 43.6798 101.203 42.9356C100.775 42.2732 100.214 41.9126 99.4971 41.621C98.6501 41.2766 97.6258 41.0501 96.719 40.9296C96.1493 40.854 95.3488 40.844 94.8293 41.1439C94.4755 41.3482 94.2609 41.5784 93.873 41.7005C93.6251 41.7785 92.5384 42.2045 92.7549 42.5795" stroke="#14AE5C" stroke-width="8" stroke-linecap="round" stroke-linejoin="round"/>
<path d="M123.046 42.5295C122.542 42.8207 122.158 42.9867 121.89 43.5715C121.325 44.8054 120.682 46.2055 121.079 47.5773C121.392 48.6578 121.963 49.6199 122.993 50.1291C123.555 50.4068 124.173 50.6111 124.784 50.7429C125.688 50.9382 126.754 51.1581 127.669 50.9184C128.675 50.655 129.756 50.3126 130.661 49.7901C130.967 49.6138 131.141 49.1054 131.265 48.7984C131.45 48.3389 131.452 47.8414 131.544 47.3594C131.639 46.8685 131.817 46.2963 131.751 45.7949C131.635 44.9026 131.108 44.051 130.628 43.3069C130.2 42.6445 129.639 42.2838 128.921 41.9922C128.074 41.6479 127.05 41.4214 126.143 41.3009C125.574 41.2252 124.773 41.2152 124.254 41.5152C123.9 41.7194 123.685 41.9496 123.297 42.0717C123.049 42.1497 121.963 42.5758 122.179 42.9508" stroke="#14AE5C" stroke-width="8" stroke-linecap="round" stroke-linejoin="round"/>
<path d="M263.291 41.9164C262.786 42.2076 262.402 42.3737 262.135 42.9585C261.569 44.1923 260.927 45.5925 261.324 46.9643C261.636 48.0447 262.208 49.0068 263.238 49.516C263.799 49.7938 264.417 49.998 265.028 50.1299C265.933 50.3251 266.999 50.545 267.914 50.3054C268.92 50.042 270.001 49.6996 270.906 49.1771C271.211 49.0008 271.386 48.4924 271.51 48.1853C271.695 47.7258 271.696 47.2283 271.789 46.7464C271.883 46.2554 272.061 45.6833 271.996 45.1819C271.88 44.2896 271.353 43.438 270.872 42.6938C270.444 42.0314 269.883 41.6708 269.166 41.3792C268.319 41.0348 267.295 40.8083 266.388 40.6878C265.818 40.6122 265.018 40.6022 264.498 40.9021C264.144 41.1064 263.93 41.3366 263.542 41.4587C263.294 41.5367 262.207 41.9627 262.424 42.3377" stroke="#14AE5C" stroke-width="8" stroke-linecap="round" stroke-linejoin="round"/>
<path d="M92.5149 29.2005C90.2978 29.2005 90.056 37.7835 89.7307 38.9762C88.6099 43.0858 87.7048 47.6172 85.0903 51.1031" stroke="#14AE5C" stroke-width="8" stroke-linecap="round" stroke-linejoin="round"/>
<path d="M262.177 28.5654C259.96 28.5654 259.718 37.1485 259.393 38.3412C258.272 42.4507 257.367 46.9821 254.753 50.4681" stroke="#14AE5C" stroke-width="8" stroke-linecap="round" stroke-linejoin="round"/>
<path d="M112.407 29.3403C110.19 29.3403 109.948 37.9233 109.623 39.116C108.502 43.2255 107.597 47.7569 104.982 51.2429" stroke="#14AE5C" stroke-width="8" stroke-linecap="round" stroke-linejoin="round"/>
<path d="M119.847 28.8315C115.901 28.8315 115.471 44.1055 114.892 46.2281C112.898 53.5412 111.287 61.6051 106.634 67.8086" stroke="#14AE5C" stroke-width="8" stroke-linecap="round" stroke-linejoin="round"/>
<path d="M112.537 44.421C113.827 44.421 117.486 44.9182 118.106 43.6785" stroke="#14AE5C" stroke-width="8" stroke-linecap="round" stroke-linejoin="round"/>
<path d="M193.127 44.3827C196.039 44.3827 198.956 44.2777 201.855 43.9878C202.244 43.949 202.216 43.8804 202.292 43.4986C202.362 43.1439 202.454 42.7398 202.38 42.3788C202.056 40.8037 200.131 40.306 198.802 40.0213C197.933 39.8349 197.117 39.7486 196.227 39.8238C195.627 39.8745 194.769 39.9732 194.429 40.5399C193.821 41.5541 193.377 42.7232 193.298 43.9112C193.211 45.2017 193.225 46.6294 194.143 47.6243C194.341 47.8386 194.591 47.993 194.792 48.2019C194.94 48.3564 195.074 48.5399 195.248 48.6675C195.72 49.0116 196.409 49.203 196.969 49.3158C197.989 49.5209 198.888 49.6352 199.863 49.2362C200.083 49.1466 200.237 49.0481 200.394 48.8915C200.517 48.768 200.734 48.7417 200.818 48.5732" stroke="#14AE5C" stroke-width="8" stroke-linecap="round" stroke-linejoin="round"/>
<path d="M214.616 41.8487C214.616 39.8283 207.858 39.3873 206.894 40.9137C205.782 42.6731 205.314 45.8579 206.27 47.7703C207.981 51.1911 211.906 48.9855 214.616 48.082" stroke="#14AE5C" stroke-width="8" stroke-linecap="round" stroke-linejoin="round"/>
<path d="M219.969 41.174C219.465 41.4652 219.081 41.6312 218.813 42.216C218.248 43.4499 217.605 44.85 218.002 46.2218C218.315 47.3023 218.886 48.2644 219.916 48.7735C220.478 49.0513 221.096 49.2556 221.706 49.3874C222.611 49.5826 223.677 49.8026 224.592 49.5629C225.598 49.2995 226.679 48.9571 227.584 48.4346C227.89 48.2583 228.064 47.7499 228.188 47.4429C228.373 46.9834 228.375 46.4859 228.467 46.0039C228.562 45.513 228.74 44.9408 228.674 44.4394C228.558 43.5471 228.031 42.6955 227.551 41.9514C227.123 41.289 226.562 40.9283 225.844 40.6367C224.997 40.2924 223.973 40.0659 223.066 39.9454C222.496 39.8697 221.696 39.8597 221.177 40.1597C220.823 40.3639 220.608 40.5941 220.22 40.7162C219.972 40.7942 218.886 41.2203 219.102 41.5952" stroke="#14AE5C" stroke-width="8" stroke-linecap="round" stroke-linejoin="round"/>
<path d="M231.845 40.2019C231.845 43.2425 233.642 46.2715 233.464 49.3053C233.309 51.9308 232.389 43.7681 233.565 41.4157C234.465 39.6161 237.954 39.595 239.735 39.595C240.904 39.595 241.411 40.9828 241.758 42.0226" stroke="#14AE5C" stroke-width="8" stroke-linecap="round" stroke-linejoin="round"/>
<path d="M275.816 40.5924C275.816 43.633 277.613 46.662 277.434 49.6958C277.28 52.3213 276.359 44.1586 277.535 41.8062C278.435 40.0066 281.924 39.9855 283.706 39.9855C284.875 39.9855 285.382 41.3733 285.728 42.4131" stroke="#14AE5C" stroke-width="8" stroke-linecap="round" stroke-linejoin="round"/>
<path d="M285.935 43.3073C285.935 45.5347 285.935 47.7621 285.935 49.9894" stroke="#14AE5C" stroke-width="8" stroke-linecap="round" stroke-linejoin="round"/>
<path d="M285.563 41.8223V42.1936" stroke="#14AE5C" stroke-width="8" stroke-linecap="round" stroke-linejoin="round"/>
<path d="M190.037 19.4442C186.896 23.5823 184.475 28.1262 182.448 32.9117C180.204 38.2087 178.926 42.016 177.003 47.5134C175.232 52.5754 173.788 58.2837 170.94 62.9195C168.505 66.8812 165.172 67.7532 160.751 67.1062C150.007 65.5338 141.438 59.3462 137.302 49.1633C130.494 32.4013 140.608 11.5696 157.864 6.36864C165.693 4.00904 174.507 4.13674 182.551 4.90434C188.653 5.48659 194.131 6.61676 198.658 10.9472C204.475 16.5112 205.503 24.6947 199.628 30.6843C195.414 34.9799 189.69 36.5556 183.85 37.0158C179.48 37.3603 175.071 37.2364 170.692 37.284C169.725 37.2945 164.733 38.0344 163.639 37.3046C162.927 36.8299 165.172 36.525 165.99 36.2734C169.305 35.2535 172.698 34.5557 176.157 34.2729C179.754 33.9788 181.562 33.6791 182.675 37.0158C184.203 41.602 186.387 46.441 191.151 48.029" stroke="#1E1E1E" stroke-width="3" stroke-linecap="round" stroke-linejoin="round"/>
<path d="M59.126 19.3761C55.9842 23.5141 53.5635 28.0581 51.5364 32.8435C49.2925 38.1406 48.015 41.9478 46.0916 47.4453C44.3206 52.5073 42.8767 58.2156 40.0282 62.8514C37.5939 66.813 34.2608 67.685 29.84 67.0381C19.0953 65.4657 10.5262 59.2781 6.39052 49.0952C-0.417284 32.3332 9.69699 11.5015 26.9526 6.30051C34.7812 3.94091 43.5951 4.06861 51.6395 4.83621C57.7415 5.41846 63.2196 6.54863 67.7468 10.879C73.5638 16.4431 74.5917 24.6265 68.7161 30.6162C64.5024 34.9117 58.7785 36.4874 52.9388 36.9477C48.5689 37.2921 44.1593 37.1682 39.7807 37.2158C38.8133 37.2263 33.822 37.9662 32.7273 37.2365C32.0153 36.7618 34.2605 36.4569 35.0784 36.2053C38.3932 35.1853 41.787 34.4875 45.2461 34.2047C48.8431 33.9106 50.651 33.611 51.7632 36.9477C53.292 41.5339 55.4755 46.3729 60.2397 47.9609" stroke="#1E1E1E" stroke-width="3" stroke-linecap="round" stroke-linejoin="round"/>
<path d="M64.1859 40.4555C63.6815 40.7467 63.2975 40.9127 63.0297 41.4975C62.4646 42.7314 61.8218 44.1315 62.2189 45.5033C62.5316 46.5838 63.1029 47.5459 64.1326 48.055C64.6944 48.3328 65.3125 48.5371 65.9233 48.6689C66.8279 48.8641 67.8938 49.0841 68.809 48.8444C69.8148 48.581 70.896 48.2386 71.801 47.7161C72.1064 47.5398 72.2809 47.0314 72.4047 46.7244C72.5899 46.2649 72.5914 45.7674 72.6841 45.2854C72.7785 44.7945 72.9564 44.2223 72.891 43.7209C72.7747 42.8286 72.2481 41.977 71.7674 41.2329C71.3395 40.5705 70.7783 40.2098 70.0612 39.9182C69.2142 39.5739 68.1898 39.3474 67.283 39.2269C66.7133 39.1512 65.9128 39.1412 65.3933 39.4412C65.0395 39.6454 64.825 39.8756 64.437 39.9977C64.1891 40.0757 63.1024 40.5018 63.3189 40.8767" stroke="#1E1E1E" stroke-width="3" stroke-linecap="round" stroke-linejoin="round"/>
<path d="M77.5513 41.2434C77.047 41.5346 76.6629 41.7006 76.3951 42.2854C75.8301 43.5193 75.1872 44.9194 75.5843 46.2912C75.8971 47.3717 76.4683 48.3338 77.4981 48.843C78.0599 49.1207 78.6779 49.325 79.2887 49.4568C80.1933 49.652 81.2593 49.872 82.1744 49.6323C83.1803 49.3689 84.2615 49.0265 85.1664 48.504C85.4718 48.3277 85.6464 47.8193 85.7701 47.5123C85.9553 47.0528 85.9569 46.5553 86.0496 46.0733C86.144 45.5824 86.3218 45.0102 86.2565 44.5088C86.1402 43.6165 85.6136 42.7649 85.1328 42.0208C84.7049 41.3584 84.1438 40.9977 83.4266 40.7061C82.5796 40.3618 81.5553 40.1353 80.6484 40.0148C80.0788 39.9391 79.2783 39.9291 78.7588 40.2291C78.405 40.4333 78.1904 40.6635 77.8025 40.7856C77.5545 40.8636 76.4679 41.2897 76.6843 41.6647" stroke="#1E1E1E" stroke-width="3" stroke-linecap="round" stroke-linejoin="round"/>
<path d="M246.97 40.9935C246.465 41.2846 246.081 41.4507 245.813 42.0355C245.248 43.2693 244.605 44.6695 245.002 46.0413C245.315 47.1217 245.886 48.0839 246.916 48.593C247.478 48.8708 248.096 49.075 248.707 49.2069C249.611 49.4021 250.677 49.622 251.593 49.3824C252.598 49.119 253.68 48.7766 254.585 48.2541C254.89 48.0778 255.065 47.5694 255.188 47.2623C255.374 46.8028 255.375 46.3054 255.468 45.8234C255.562 45.3325 255.74 44.7603 255.675 44.2589C255.558 43.3666 255.032 42.515 254.551 41.7708C254.123 41.1084 253.562 40.7478 252.845 40.4562C251.998 40.1118 250.973 39.8853 250.067 39.7649C249.497 39.6892 248.696 39.6792 248.177 39.9791C247.823 40.1834 247.609 40.4136 247.221 40.5357C246.973 40.6137 245.886 41.0397 246.103 41.4147" stroke="#1E1E1E" stroke-width="3" stroke-linecap="round" stroke-linejoin="round"/>
<path d="M93.6356 41.9858C93.1313 42.277 92.7472 42.443 92.4794 43.0278C91.9144 44.2617 91.2715 45.6619 91.6686 47.0337C91.9813 48.1141 92.5526 49.0762 93.5824 49.5854C94.1442 49.8632 94.7622 50.0674 95.373 50.1992C96.2776 50.3945 97.3435 50.6144 98.2587 50.3747C99.2646 50.1113 100.346 49.769 101.251 49.2465C101.556 49.0702 101.731 48.5617 101.854 48.2547C102.04 47.7952 102.041 47.2977 102.134 46.8158C102.228 46.3248 102.406 45.7526 102.341 45.2512C102.224 44.3589 101.698 43.5074 101.217 42.7632C100.789 42.1008 100.228 41.7401 99.5109 41.4486C98.6639 41.1042 97.6395 40.8777 96.7327 40.7572C96.163 40.6815 95.3626 40.6716 94.8431 40.9715C94.4893 41.1758 94.2747 41.4059 93.8868 41.528C93.6388 41.6061 92.5521 42.0321 92.7686 42.4071" stroke="#1E1E1E" stroke-width="3" stroke-linecap="round" stroke-linejoin="round"/>
<path d="M123.06 42.3571C122.556 42.6483 122.172 42.8143 121.904 43.3991C121.339 44.633 120.696 46.0331 121.093 47.4049C121.406 48.4854 121.977 49.4475 123.007 49.9566C123.568 50.2344 124.187 50.4387 124.797 50.5705C125.702 50.7657 126.768 50.9857 127.683 50.746C128.689 50.4826 129.77 50.1402 130.675 49.6177C130.98 49.4414 131.155 48.933 131.279 48.626C131.464 48.1664 131.465 47.669 131.558 47.187C131.653 46.6961 131.83 46.1239 131.765 45.6225C131.649 44.7302 131.122 43.8786 130.641 43.1345C130.214 42.472 129.652 42.1114 128.935 41.8198C128.088 41.4755 127.064 41.249 126.157 41.1285C125.587 41.0528 124.787 41.0428 124.267 41.3427C123.914 41.547 123.699 41.7772 123.311 41.8993C123.063 41.9773 121.976 42.4034 122.193 42.7783" stroke="#1E1E1E" stroke-width="3" stroke-linecap="round" stroke-linejoin="round"/>
<path d="M263.305 41.744C262.8 42.0352 262.416 42.2012 262.148 42.786C261.583 44.0199 260.94 45.4201 261.337 46.7919C261.65 47.8723 262.222 48.8344 263.251 49.3436C263.813 49.6214 264.431 49.8256 265.042 49.9574C265.947 50.1527 267.012 50.3726 267.928 50.1329C268.933 49.8695 270.015 49.5271 270.92 49.0047C271.225 48.8284 271.4 48.3199 271.523 48.0129C271.709 47.5534 271.71 47.0559 271.803 46.574C271.897 46.083 272.075 45.5108 272.01 45.0094C271.893 44.1171 271.367 43.2656 270.886 42.5214C270.458 41.859 269.897 41.4983 269.18 41.2068C268.333 40.8624 267.308 40.6359 266.402 40.5154C265.832 40.4397 265.031 40.4298 264.512 40.7297C264.158 40.934 263.944 41.1641 263.556 41.2862C263.308 41.3643 262.221 41.7903 262.438 42.1653" stroke="#1E1E1E" stroke-width="3" stroke-linecap="round" stroke-linejoin="round"/>
<path d="M92.5287 29.0281C90.3115 29.0281 90.0698 37.6111 89.7445 38.8038C88.6237 42.9133 87.7186 47.4447 85.1041 50.9307" stroke="#1E1E1E" stroke-width="3" stroke-linecap="round" stroke-linejoin="round"/>
<path d="M262.191 28.393C259.974 28.393 259.732 36.976 259.407 38.1688C258.286 42.2783 257.381 46.8097 254.767 50.2957" stroke="#1E1E1E" stroke-width="3" stroke-linecap="round" stroke-linejoin="round"/>
<path d="M112.421 29.1678C110.203 29.1678 109.962 37.7509 109.636 38.9436C108.516 43.0531 107.611 47.5845 104.996 51.0705" stroke="#1E1E1E" stroke-width="3" stroke-linecap="round" stroke-linejoin="round"/>
<path d="M119.861 28.6591C115.915 28.6591 115.485 43.9331 114.906 46.0556C112.911 53.3688 111.301 61.4326 106.648 67.6362" stroke="#1E1E1E" stroke-width="3" stroke-linecap="round" stroke-linejoin="round"/>
<path d="M112.551 44.2485C113.841 44.2485 117.5 44.7458 118.119 43.5061" stroke="#1E1E1E" stroke-width="3" stroke-linecap="round" stroke-linejoin="round"/>
<path d="M193.14 44.2103C196.053 44.2103 198.97 44.1053 201.869 43.8154C202.258 43.7765 202.23 43.708 202.305 43.3262C202.376 42.9715 202.468 42.5673 202.394 42.2064C202.069 40.6313 200.145 40.1335 198.816 39.8488C197.947 39.6625 197.131 39.5762 196.241 39.6514C195.641 39.7021 194.783 39.8007 194.443 40.3675C193.834 41.3817 193.391 42.5508 193.311 43.7388C193.225 45.0293 193.239 46.457 194.157 47.4519C194.355 47.6662 194.605 47.8206 194.805 48.0295C194.954 48.184 195.087 48.3675 195.262 48.4951C195.734 48.8391 196.422 49.0305 196.983 49.1434C198.003 49.3485 198.902 49.4628 199.877 49.0638C200.096 48.9742 200.251 48.8757 200.408 48.719C200.531 48.5956 200.748 48.5693 200.832 48.4008" stroke="#1E1E1E" stroke-width="3" stroke-linecap="round" stroke-linejoin="round"/>
<path d="M214.63 41.6763C214.63 39.6558 207.871 39.2149 206.907 40.7413C205.796 42.5007 205.328 45.6855 206.284 47.5979C207.995 51.0187 211.919 48.813 214.63 47.9096" stroke="#1E1E1E" stroke-width="3" stroke-linecap="round" stroke-linejoin="round"/>
<path d="M219.983 41.0016C219.478 41.2927 219.094 41.4588 218.827 42.0436C218.262 43.2774 217.619 44.6776 218.016 46.0494C218.329 47.1298 218.9 48.0919 219.93 48.6011C220.491 48.8789 221.109 49.0831 221.72 49.215C222.625 49.4102 223.691 49.6301 224.606 49.3905C225.612 49.1271 226.693 48.7847 227.598 48.2622C227.903 48.0859 228.078 47.5775 228.202 47.2704C228.387 46.8109 228.388 46.3135 228.481 45.8315C228.575 45.3406 228.753 44.7684 228.688 44.267C228.572 43.3747 228.045 42.5231 227.564 41.7789C227.136 41.1165 226.575 40.7559 225.858 40.4643C225.011 40.1199 223.987 39.8934 223.08 39.773C222.51 39.6973 221.71 39.6873 221.19 39.9872C220.836 40.1915 220.622 40.4217 220.234 40.5438C219.986 40.6218 218.899 41.0478 219.116 41.4228" stroke="#1E1E1E" stroke-width="3" stroke-linecap="round" stroke-linejoin="round"/>
<path d="M231.859 40.0295C231.859 43.0701 233.656 46.099 233.478 49.1329C233.323 51.7584 232.402 43.5957 233.579 41.2432C234.478 39.4436 237.968 39.4226 239.749 39.4226C240.918 39.4226 241.425 40.8104 241.772 41.8501" stroke="#1E1E1E" stroke-width="3" stroke-linecap="round" stroke-linejoin="round"/>
<path d="M275.83 40.42C275.83 43.4606 277.626 46.4895 277.448 49.5234C277.294 52.1489 276.373 43.9862 277.549 41.6337C278.449 39.8341 281.938 39.8131 283.719 39.8131C284.889 39.8131 285.396 41.2009 285.742 42.2406" stroke="#1E1E1E" stroke-width="3" stroke-linecap="round" stroke-linejoin="round"/>
<path d="M285.948 43.1349C285.948 45.3622 285.948 47.5896 285.948 49.817" stroke="#1E1E1E" stroke-width="3" stroke-linecap="round" stroke-linejoin="round"/>
<path d="M285.577 41.6499V42.0212" stroke="#1E1E1E" stroke-width="3" stroke-linecap="round" stroke-linejoin="round"/>
</svg>
