<svg width="290" height="73" viewBox="0 0 290 73" fill="none" xmlns="http://www.w3.org/2000/svg">
<path d="M189.886 20.0661C186.744 24.2041 184.323 28.7481 182.296 33.5336C180.052 38.8306 178.775 42.6379 176.851 48.1353C175.08 53.1973 173.636 58.9056 170.788 63.5414C168.353 67.5031 165.02 68.375 160.6 67.7281C149.855 66.1557 141.286 59.9681 137.15 49.7852C130.342 33.0232 140.457 12.1915 157.712 6.99052C165.541 4.63093 174.355 4.75863 182.399 5.52623C188.501 6.10848 193.979 7.23865 198.506 11.569C204.323 17.1331 205.351 25.3166 199.476 31.3062C195.262 35.6017 189.538 37.1775 183.698 37.6377C179.328 37.9822 174.919 37.8582 170.54 37.9058C169.573 37.9164 164.582 38.6562 163.487 37.9265C162.775 37.4518 165.02 37.1469 165.838 36.8953C169.153 35.8754 172.547 35.1776 176.006 34.8947C179.603 34.6006 181.411 34.301 182.523 37.6377C184.052 42.2239 186.235 47.0629 190.999 48.6509" stroke="#F24822" stroke-width="8" stroke-linecap="round" stroke-linejoin="round"/>
<path d="M58.9741 19.998C55.8323 24.136 53.4117 28.68 51.3845 33.4654C49.1406 38.7625 47.8631 42.5697 45.9398 48.0672C44.1688 53.1292 42.7248 58.8375 39.8763 63.4733C37.4421 67.4349 34.109 68.3069 29.6881 67.66C18.9435 66.0876 10.3744 59.9 6.23866 49.7171C-0.569139 32.9551 9.54513 12.1234 26.8007 6.9224C34.6293 4.5628 43.4433 4.6905 51.4876 5.45809C57.5897 6.04035 63.0677 7.17052 67.5949 11.5009C73.4119 17.065 74.4398 25.2484 68.5643 31.238C64.3505 35.5336 58.6266 37.1093 52.7869 37.5696C48.417 37.914 44.0075 37.7901 39.6289 37.8377C38.6615 37.8482 33.6701 38.5881 32.5755 37.8583C31.8634 37.3836 34.1087 37.0788 34.9266 36.8271C38.2413 35.8072 41.6351 35.1094 45.0942 34.8266C48.6912 34.5325 50.4991 34.2329 51.6114 37.5696C53.1401 42.1558 55.3237 46.9947 60.0878 48.5828" stroke="#F24822" stroke-width="8" stroke-linecap="round" stroke-linejoin="round"/>
<path d="M64.034 41.0774C63.5297 41.3686 63.1456 41.5346 62.8778 42.1194C62.3128 43.3533 61.6699 44.7534 62.067 46.1252C62.3797 47.2057 62.951 48.1678 63.9808 48.6769C64.5426 48.9547 65.1606 49.159 65.7714 49.2908C66.676 49.486 67.742 49.706 68.6571 49.4663C69.663 49.2029 70.7442 48.8605 71.6491 48.338C71.9545 48.1617 72.1291 47.6533 72.2528 47.3463C72.438 46.8867 72.4395 46.3893 72.5322 45.9073C72.6267 45.4164 72.8045 44.8442 72.7392 44.3428C72.6229 43.4505 72.0962 42.5989 71.6155 41.8548C71.1876 41.1923 70.6265 40.8317 69.9093 40.5401C69.0623 40.1958 68.0379 39.9693 67.1311 39.8488C66.5615 39.7731 65.761 39.7631 65.2415 40.063C64.8877 40.2673 64.6731 40.4975 64.2852 40.6196C64.0372 40.6976 62.9505 41.1237 63.167 41.4986" stroke="#F24822" stroke-width="8" stroke-linecap="round" stroke-linejoin="round"/>
<path d="M77.3995 41.8653C76.8951 42.1565 76.5111 42.3225 76.2433 42.9073C75.6782 44.1412 75.0354 45.5413 75.4325 46.9131C75.7452 47.9936 76.3165 48.9557 77.3463 49.4648C77.908 49.7426 78.5261 49.9469 79.1369 50.0787C80.0415 50.2739 81.1074 50.4939 82.0226 50.2542C83.0284 49.9908 84.1096 49.6484 85.0146 49.1259C85.32 48.9496 85.4945 48.4412 85.6183 48.1342C85.8035 47.6747 85.805 47.1772 85.8977 46.6952C85.9921 46.2043 86.17 45.6321 86.1046 45.1307C85.9883 44.2384 85.4617 43.3868 84.981 42.6427C84.5531 41.9803 83.9919 41.6196 83.2748 41.328C82.4278 40.9837 81.4034 40.7572 80.4966 40.6367C79.9269 40.561 79.1264 40.551 78.6069 40.851C78.2531 41.0552 78.0386 41.2854 77.6506 41.4075C77.4027 41.4855 76.316 41.9116 76.5325 42.2865" stroke="#F24822" stroke-width="8" stroke-linecap="round" stroke-linejoin="round"/>
<path d="M246.818 41.6153C246.313 41.9065 245.929 42.0726 245.661 42.6574C245.096 43.8912 244.454 45.2914 244.851 46.6632C245.163 47.7436 245.735 48.7057 246.764 49.2149C247.326 49.4927 247.944 49.6969 248.555 49.8288C249.46 50.024 250.526 50.2439 251.441 50.0043C252.447 49.7409 253.528 49.3985 254.433 48.876C254.738 48.6997 254.913 48.1913 255.036 47.8842C255.222 47.4247 255.223 46.9272 255.316 46.4453C255.41 45.9543 255.588 45.3822 255.523 44.8808C255.407 43.9885 254.88 43.1369 254.399 42.3927C253.971 41.7303 253.41 41.3697 252.693 41.0781C251.846 40.7337 250.822 40.5072 249.915 40.3867C249.345 40.3111 248.545 40.3011 248.025 40.601C247.671 40.8053 247.457 41.0355 247.069 41.1576C246.821 41.2356 245.734 41.6616 245.951 42.0366" stroke="#F24822" stroke-width="8" stroke-linecap="round" stroke-linejoin="round"/>
<path d="M93.4838 42.6077C92.9794 42.8989 92.5954 43.0649 92.3275 43.6497C91.7625 44.8836 91.1197 46.2837 91.5167 47.6556C91.8295 48.736 92.4008 49.6981 93.4305 50.2073C93.9923 50.485 94.6103 50.6893 95.2212 50.8211C96.1257 51.0164 97.1917 51.2363 98.1068 50.9966C99.1127 50.7332 100.194 50.3908 101.099 49.8684C101.404 49.692 101.579 49.1836 101.703 48.8766C101.888 48.4171 101.889 47.9196 101.982 47.4376C102.076 46.9467 102.254 46.3745 102.189 45.8731C102.073 44.9808 101.546 44.1293 101.065 43.3851C100.637 42.7227 100.076 42.362 99.359 42.0705C98.512 41.7261 97.4877 41.4996 96.5809 41.3791C96.0112 41.3034 95.2107 41.2935 94.6912 41.5934C94.3374 41.7977 94.1228 42.0278 93.7349 42.1499C93.487 42.228 92.4003 42.654 92.6168 43.029" stroke="#F24822" stroke-width="8" stroke-linecap="round" stroke-linejoin="round"/>
<path d="M122.908 42.979C122.404 43.2701 122.02 43.4362 121.752 44.021C121.187 45.2549 120.544 46.655 120.941 48.0268C121.254 49.1072 121.825 50.0694 122.855 50.5785C123.417 50.8563 124.035 51.0606 124.645 51.1924C125.55 51.3876 126.616 51.6075 127.531 51.3679C128.537 51.1045 129.618 50.7621 130.523 50.2396C130.829 50.0633 131.003 49.5549 131.127 49.2478C131.312 48.7883 131.314 48.2909 131.406 47.8089C131.501 47.318 131.679 46.7458 131.613 46.2444C131.497 45.3521 130.97 44.5005 130.49 43.7563C130.062 43.0939 129.501 42.7333 128.783 42.4417C127.936 42.0973 126.912 41.8708 126.005 41.7504C125.436 41.6747 124.635 41.6647 124.116 41.9646C123.762 42.1689 123.547 42.3991 123.159 42.5212C122.911 42.5992 121.825 43.0252 122.041 43.4002" stroke="#F24822" stroke-width="8" stroke-linecap="round" stroke-linejoin="round"/>
<path d="M263.153 42.3659C262.648 42.6571 262.264 42.8231 261.996 43.4079C261.431 44.6418 260.789 46.0419 261.186 47.4137C261.498 48.4942 262.07 49.4563 263.099 49.9655C263.661 50.2432 264.279 50.4475 264.89 50.5793C265.795 50.7746 266.861 50.9945 267.776 50.7548C268.782 50.4914 269.863 50.149 270.768 49.6266C271.073 49.4502 271.248 48.9418 271.371 48.6348C271.557 48.1753 271.558 47.6778 271.651 47.1958C271.745 46.7049 271.923 46.1327 271.858 45.6313C271.742 44.739 271.215 43.8875 270.734 43.1433C270.306 42.4809 269.745 42.1202 269.028 41.8286C268.181 41.4843 267.157 41.2578 266.25 41.1373C265.68 41.0616 264.88 41.0517 264.36 41.3516C264.006 41.5558 263.792 41.786 263.404 41.9081C263.156 41.9862 262.069 42.4122 262.286 42.7872" stroke="#F24822" stroke-width="8" stroke-linecap="round" stroke-linejoin="round"/>
<path d="M92.3768 29.65C90.1597 29.65 89.9179 38.233 89.5926 39.4257C88.4718 43.5352 87.5667 48.0666 84.9522 51.5526" stroke="#F24822" stroke-width="8" stroke-linecap="round" stroke-linejoin="round"/>
<path d="M262.039 29.0149C259.822 29.0149 259.58 37.5979 259.255 38.7907C258.134 42.9002 257.229 47.4316 254.615 50.9175" stroke="#F24822" stroke-width="8" stroke-linecap="round" stroke-linejoin="round"/>
<path d="M112.269 29.7897C110.052 29.7897 109.81 38.3727 109.485 39.5655C108.364 43.675 107.459 48.2064 104.844 51.6924" stroke="#F24822" stroke-width="8" stroke-linecap="round" stroke-linejoin="round"/>
<path d="M119.709 29.281C115.763 29.281 115.333 44.555 114.754 46.6775C112.76 53.9906 111.149 62.0545 106.496 68.258" stroke="#F24822" stroke-width="8" stroke-linecap="round" stroke-linejoin="round"/>
<path d="M112.399 44.8704C113.689 44.8704 117.348 45.3677 117.968 44.128" stroke="#F24822" stroke-width="8" stroke-linecap="round" stroke-linejoin="round"/>
<path d="M192.989 44.8322C195.901 44.8322 198.818 44.7272 201.717 44.4373C202.106 44.3984 202.078 44.3299 202.154 43.9481C202.224 43.5934 202.316 43.1892 202.242 42.8283C201.918 41.2532 199.993 40.7554 198.664 40.4707C197.795 40.2844 196.979 40.1981 196.089 40.2733C195.489 40.324 194.631 40.4226 194.291 40.9894C193.683 42.0036 193.239 43.1727 193.16 44.3606C193.073 45.6512 193.087 47.0789 194.005 48.0738C194.203 48.2881 194.453 48.4425 194.654 48.6513C194.802 48.8059 194.936 48.9894 195.11 49.117C195.582 49.461 196.27 49.6524 196.831 49.7653C197.851 49.9704 198.75 50.0847 199.725 49.6857C199.944 49.596 200.099 49.4976 200.256 49.3409C200.379 49.2175 200.596 49.1912 200.68 49.0227" stroke="#F24822" stroke-width="8" stroke-linecap="round" stroke-linejoin="round"/>
<path d="M214.478 42.2981C214.478 40.2777 207.72 39.8367 206.756 41.3631C205.644 43.1226 205.176 46.3074 206.132 48.2198C207.843 51.6406 211.768 49.4349 214.478 48.5315" stroke="#F24822" stroke-width="8" stroke-linecap="round" stroke-linejoin="round"/>
<path d="M219.831 41.6234C219.327 41.9146 218.943 42.0807 218.675 42.6655C218.11 43.8993 217.467 45.2995 217.864 46.6713C218.177 47.7517 218.748 48.7138 219.778 49.223C220.34 49.5008 220.958 49.705 221.568 49.8369C222.473 50.0321 223.539 50.252 224.454 50.0124C225.46 49.749 226.541 49.4066 227.446 48.8841C227.751 48.7078 227.926 48.1994 228.05 47.8923C228.235 47.4328 228.236 46.9353 228.329 46.4534C228.424 45.9624 228.601 45.3903 228.536 44.8889C228.42 43.9966 227.893 43.145 227.412 42.4008C226.985 41.7384 226.423 41.3778 225.706 41.0862C224.859 40.7418 223.835 40.5153 222.928 40.3948C222.358 40.3191 221.558 40.3092 221.038 40.6091C220.685 40.8134 220.47 41.0436 220.082 41.1656C219.834 41.2437 218.747 41.6697 218.964 42.0447" stroke="#F24822" stroke-width="8" stroke-linecap="round" stroke-linejoin="round"/>
<path d="M231.707 40.6513C231.707 43.692 233.504 46.7209 233.326 49.7548C233.171 52.3803 232.251 44.2176 233.427 41.8651C234.327 40.0655 237.816 40.0444 239.597 40.0444C240.766 40.0444 241.273 41.4322 241.62 42.472" stroke="#F24822" stroke-width="8" stroke-linecap="round" stroke-linejoin="round"/>
<path d="M275.678 41.0418C275.678 44.0825 277.475 47.1114 277.296 50.1453C277.142 52.7708 276.221 44.6081 277.397 42.2556C278.297 40.456 281.786 40.4349 283.567 40.4349C284.737 40.4349 285.244 41.8227 285.59 42.8625" stroke="#F24822" stroke-width="8" stroke-linecap="round" stroke-linejoin="round"/>
<path d="M285.796 43.7567C285.796 45.9841 285.796 48.2115 285.796 50.4389" stroke="#F24822" stroke-width="8" stroke-linecap="round" stroke-linejoin="round"/>
<path d="M285.425 42.2718V42.643" stroke="#F24822" stroke-width="8" stroke-linecap="round" stroke-linejoin="round"/>
<path d="M189.899 19.8937C186.758 24.0317 184.337 28.5757 182.31 33.3611C180.066 38.6582 178.788 42.4654 176.865 47.9629C175.094 53.0249 173.65 58.7332 170.802 63.369C168.367 67.3306 165.034 68.2026 160.613 67.5557C149.869 65.9833 141.3 59.7957 137.164 49.6128C130.356 32.8508 140.47 12.0191 157.726 6.8181C165.555 4.4585 174.368 4.58621 182.413 5.3538C188.515 5.93606 193.993 7.06623 198.52 11.3966C204.337 16.9607 205.365 25.1441 199.489 31.1338C195.276 35.4293 189.552 37.005 183.712 37.4653C179.342 37.8097 174.933 37.6858 170.554 37.7334C169.587 37.7439 164.595 38.4838 163.501 37.754C162.789 37.2793 165.034 36.9745 165.852 36.7228C169.167 35.7029 172.56 35.0051 176.019 34.7223C179.616 34.4282 181.424 34.1286 182.537 37.4653C184.065 42.0515 186.249 46.8905 191.013 48.4785" stroke="#1E1E1E" stroke-width="3" stroke-linecap="round" stroke-linejoin="round"/>
<path d="M58.9879 19.8256C55.8461 23.9636 53.4255 28.5076 51.3983 33.293C49.1544 38.59 47.8769 42.3973 45.9536 47.8948C44.1826 52.9568 42.7386 58.6651 39.8901 63.3009C37.4559 67.2625 34.1228 68.1345 29.7019 67.4875C18.9572 65.9151 10.3882 59.7276 6.25246 49.5447C-0.555345 32.7826 9.55893 11.951 26.8145 6.74997C34.6431 4.39038 43.457 4.51808 51.5014 5.28567C57.6034 5.86792 63.0815 6.99809 67.6087 11.3285C73.4257 16.8925 74.4536 25.076 68.5781 31.0656C64.3643 35.3612 58.6404 36.9369 52.8007 37.3972C48.4308 37.7416 44.0212 37.6177 39.6426 37.6653C38.6753 37.6758 33.6839 38.4157 32.5893 37.6859C31.8772 37.2112 34.1225 36.9064 34.9404 36.6547C38.2551 35.6348 41.6489 34.937 45.108 34.6542C48.705 34.3601 50.5129 34.0604 51.6252 37.3972C53.1539 41.9834 55.3375 46.8223 60.1016 48.4104" stroke="#1E1E1E" stroke-width="3" stroke-linecap="round" stroke-linejoin="round"/>
<path d="M64.0478 40.905C63.5435 41.1961 63.1594 41.3622 62.8916 41.947C62.3266 43.1808 61.6837 44.581 62.0808 45.9528C62.3935 47.0332 62.9648 47.9953 63.9946 48.5045C64.5564 48.7823 65.1744 48.9865 65.7852 49.1184C66.6898 49.3136 67.7557 49.5335 68.6709 49.2939C69.6768 49.0305 70.7579 48.6881 71.6629 48.1656C71.9683 47.9893 72.1429 47.4809 72.2666 47.1738C72.4518 46.7143 72.4533 46.2168 72.546 45.7349C72.6405 45.2439 72.8183 44.6718 72.753 44.1704C72.6367 43.2781 72.11 42.4265 71.6293 41.6823C71.2014 41.0199 70.6403 40.6593 69.9231 40.3677C69.0761 40.0233 68.0517 39.7968 67.1449 39.6763C66.5752 39.6007 65.7748 39.5907 65.2553 39.8906C64.9015 40.0949 64.6869 40.3251 64.299 40.4472C64.051 40.5252 62.9643 40.9512 63.1808 41.3262" stroke="#1E1E1E" stroke-width="3" stroke-linecap="round" stroke-linejoin="round"/>
<path d="M77.4133 41.6929C76.9089 41.984 76.5249 42.1501 76.2571 42.7349C75.692 43.9687 75.0492 45.3689 75.4462 46.7407C75.759 47.8211 76.3303 48.7832 77.36 49.2924C77.9218 49.5702 78.5398 49.7744 79.1507 49.9063C80.0553 50.1015 81.1212 50.3214 82.0363 50.0818C83.0422 49.8184 84.1234 49.476 85.0284 48.9535C85.3338 48.7772 85.5083 48.2688 85.6321 47.9617C85.8173 47.5022 85.8188 47.0048 85.9115 46.5228C86.0059 46.0319 86.1838 45.4597 86.1184 44.9583C86.0021 44.066 85.4755 43.2144 84.9948 42.4702C84.5669 41.8078 84.0057 41.4472 83.2886 41.1556C82.4416 40.8112 81.4172 40.5847 80.5104 40.4643C79.9407 40.3886 79.1402 40.3786 78.6207 40.6785C78.2669 40.8828 78.0523 41.113 77.6644 41.2351C77.4165 41.3131 76.3298 41.7391 76.5463 42.1141" stroke="#1E1E1E" stroke-width="3" stroke-linecap="round" stroke-linejoin="round"/>
<path d="M246.831 41.4429C246.327 41.7341 245.943 41.9001 245.675 42.4849C245.11 43.7188 244.467 45.119 244.864 46.4908C245.177 47.5712 245.748 48.5333 246.778 49.0425C247.34 49.3203 247.958 49.5245 248.569 49.6563C249.473 49.8516 250.539 50.0715 251.455 49.8318C252.46 49.5684 253.542 49.226 254.447 48.7036C254.752 48.5272 254.926 48.0188 255.05 47.7118C255.235 47.2523 255.237 46.7548 255.33 46.2728C255.424 45.7819 255.602 45.2097 255.537 44.7083C255.42 43.816 254.894 42.9645 254.413 42.2203C253.985 41.5579 253.424 41.1972 252.707 40.9057C251.86 40.5613 250.835 40.3348 249.929 40.2143C249.359 40.1386 248.558 40.1287 248.039 40.4286C247.685 40.6329 247.471 40.863 247.083 40.9851C246.835 41.0632 245.748 41.4892 245.964 41.8642" stroke="#1E1E1E" stroke-width="3" stroke-linecap="round" stroke-linejoin="round"/>
<path d="M93.4976 42.4353C92.9932 42.7265 92.6091 42.8925 92.3413 43.4773C91.7763 44.7112 91.1334 46.1113 91.5305 47.4831C91.8433 48.5636 92.4146 49.5257 93.4443 50.0348C94.0061 50.3126 94.6241 50.5169 95.235 50.6487C96.1395 50.8439 97.2055 51.0639 98.1206 50.8242C99.1265 50.5608 100.208 50.2184 101.113 49.6959C101.418 49.5196 101.593 49.0112 101.716 48.7042C101.902 48.2447 101.903 47.7472 101.996 47.2652C102.09 46.7743 102.268 46.2021 102.203 45.7007C102.086 44.8084 101.56 43.9568 101.079 43.2127C100.651 42.5503 100.09 42.1896 99.3728 41.898C98.5258 41.5537 97.5015 41.3272 96.5947 41.2067C96.025 41.131 95.2245 41.121 94.705 41.421C94.3512 41.6252 94.1366 41.8554 93.7487 41.9775C93.5008 42.0555 92.4141 42.4816 92.6306 42.8565" stroke="#1E1E1E" stroke-width="3" stroke-linecap="round" stroke-linejoin="round"/>
<path d="M122.922 42.8065C122.418 43.0977 122.033 43.2638 121.766 43.8486C121.201 45.0824 120.558 46.4826 120.955 47.8544C121.268 48.9348 121.839 49.8969 122.869 50.4061C123.43 50.6839 124.048 50.8881 124.659 51.02C125.564 51.2152 126.63 51.4351 127.545 51.1955C128.551 50.932 129.632 50.5897 130.537 50.0672C130.842 49.8909 131.017 49.3825 131.141 49.0754C131.326 48.6159 131.327 48.1184 131.42 47.6365C131.515 47.1455 131.692 46.5734 131.627 46.072C131.511 45.1797 130.984 44.3281 130.503 43.5839C130.075 42.9215 129.514 42.5609 128.797 42.2693C127.95 41.9249 126.926 41.6984 126.019 41.5779C125.449 41.5022 124.649 41.4923 124.129 41.7922C123.776 41.9965 123.561 42.2266 123.173 42.3487C122.925 42.4268 121.838 42.8528 122.055 43.2278" stroke="#1E1E1E" stroke-width="3" stroke-linecap="round" stroke-linejoin="round"/>
<path d="M263.166 42.1935C262.662 42.4847 262.278 42.6507 262.01 43.2355C261.445 44.4694 260.802 45.8695 261.199 47.2413C261.512 48.3218 262.083 49.2839 263.113 49.793C263.675 50.0708 264.293 50.2751 264.904 50.4069C265.808 50.6021 266.874 50.8221 267.79 50.5824C268.795 50.319 269.877 49.9766 270.782 49.4541C271.087 49.2778 271.261 48.7694 271.385 48.4624C271.57 48.0029 271.572 47.5054 271.665 47.0234C271.759 46.5325 271.937 45.9603 271.872 45.4589C271.755 44.5666 271.229 43.715 270.748 42.9709C270.32 42.3085 269.759 41.9478 269.042 41.6562C268.195 41.3119 267.17 41.0854 266.264 40.9649C265.694 40.8892 264.893 40.8792 264.374 41.1792C264.02 41.3834 263.806 41.6136 263.418 41.7357C263.17 41.8137 262.083 42.2398 262.299 42.6147" stroke="#1E1E1E" stroke-width="3" stroke-linecap="round" stroke-linejoin="round"/>
<path d="M92.3906 29.4775C90.1735 29.4775 89.9317 38.0605 89.6064 39.2533C88.4856 43.3628 87.5805 47.8942 84.966 51.3802" stroke="#1E1E1E" stroke-width="3" stroke-linecap="round" stroke-linejoin="round"/>
<path d="M262.053 28.8425C259.836 28.8425 259.594 37.4255 259.269 38.6182C258.148 42.7277 257.243 47.2591 254.628 50.7451" stroke="#1E1E1E" stroke-width="3" stroke-linecap="round" stroke-linejoin="round"/>
<path d="M112.283 29.6173C110.065 29.6173 109.824 38.2003 109.498 39.3931C108.378 43.5026 107.472 48.034 104.858 51.5199" stroke="#1E1E1E" stroke-width="3" stroke-linecap="round" stroke-linejoin="round"/>
<path d="M119.723 29.1086C115.777 29.1086 115.347 44.3826 114.768 46.5051C112.773 53.8182 111.163 61.8821 106.51 68.0856" stroke="#1E1E1E" stroke-width="3" stroke-linecap="round" stroke-linejoin="round"/>
<path d="M112.413 44.698C113.703 44.698 117.361 45.1952 117.981 43.9555" stroke="#1E1E1E" stroke-width="3" stroke-linecap="round" stroke-linejoin="round"/>
<path d="M193.002 44.6597C195.915 44.6597 198.832 44.5548 201.731 44.2648C202.119 44.226 202.092 44.1575 202.167 43.7757C202.238 43.421 202.33 43.0168 202.256 42.6558C201.931 41.0808 200.007 40.583 198.678 40.2983C197.809 40.112 196.993 40.0256 196.103 40.1009C195.503 40.1516 194.645 40.2502 194.305 40.817C193.696 41.8312 193.253 43.0002 193.173 44.1882C193.087 45.4787 193.101 46.9065 194.019 47.9013C194.217 48.1156 194.467 48.2701 194.667 48.4789C194.816 48.6335 194.949 48.817 195.124 48.9445C195.596 49.2886 196.284 49.48 196.845 49.5929C197.865 49.798 198.764 49.9123 199.739 49.5133C199.958 49.4236 200.113 49.3251 200.269 49.1685C200.393 49.0451 200.61 49.0187 200.694 48.8502" stroke="#1E1E1E" stroke-width="3" stroke-linecap="round" stroke-linejoin="round"/>
<path d="M214.492 42.1257C214.492 40.1053 207.733 39.6643 206.769 41.1907C205.658 42.9502 205.19 46.135 206.146 48.0474C207.856 51.4682 211.781 49.2625 214.492 48.359" stroke="#1E1E1E" stroke-width="3" stroke-linecap="round" stroke-linejoin="round"/>
<path d="M219.845 41.451C219.34 41.7422 218.956 41.9082 218.689 42.493C218.123 43.7269 217.481 45.127 217.878 46.4989C218.19 47.5793 218.762 48.5414 219.792 49.0506C220.353 49.3283 220.971 49.5326 221.582 49.6644C222.487 49.8597 223.553 50.0796 224.468 49.8399C225.474 49.5765 226.555 49.2341 227.46 48.7117C227.765 48.5353 227.94 48.0269 228.064 47.7199C228.249 47.2604 228.25 46.7629 228.343 46.2809C228.437 45.79 228.615 45.2178 228.55 44.7164C228.434 43.8241 227.907 42.9726 227.426 42.2284C226.998 41.566 226.437 41.2053 225.72 40.9138C224.873 40.5694 223.849 40.3429 222.942 40.2224C222.372 40.1467 221.572 40.1368 221.052 40.4367C220.698 40.641 220.484 40.8711 220.096 40.9932C219.848 41.0713 218.761 41.4973 218.978 41.8723" stroke="#1E1E1E" stroke-width="3" stroke-linecap="round" stroke-linejoin="round"/>
<path d="M231.721 40.4789C231.721 43.5195 233.518 46.5485 233.339 49.5823C233.185 52.2079 232.264 44.0451 233.441 41.6927C234.34 39.8931 237.83 39.872 239.611 39.872C240.78 39.872 241.287 41.2598 241.634 42.2996" stroke="#1E1E1E" stroke-width="3" stroke-linecap="round" stroke-linejoin="round"/>
<path d="M275.692 40.8694C275.692 43.91 277.488 46.939 277.31 49.9728C277.156 52.5984 276.235 44.4356 277.411 42.0832C278.311 40.2836 281.8 40.2625 283.581 40.2625C284.751 40.2625 285.258 41.6503 285.604 42.6901" stroke="#1E1E1E" stroke-width="3" stroke-linecap="round" stroke-linejoin="round"/>
<path d="M285.81 43.5843C285.81 45.8117 285.81 48.0391 285.81 50.2665" stroke="#1E1E1E" stroke-width="3" stroke-linecap="round" stroke-linejoin="round"/>
<path d="M285.439 42.0994V42.4706" stroke="#1E1E1E" stroke-width="3" stroke-linecap="round" stroke-linejoin="round"/>
</svg>
